<?xml version="1.0" encoding="UTF-8" standalone="no"?>
<svg
   xmlns:dc="http://purl.org/dc/elements/1.1/"
   xmlns:cc="http://creativecommons.org/ns#"
   xmlns:rdf="http://www.w3.org/1999/02/22-rdf-syntax-ns#"
   xmlns:svg="http://www.w3.org/2000/svg"
   xmlns="http://www.w3.org/2000/svg"
   xmlns:sodipodi="http://sodipodi.sourceforge.net/DTD/sodipodi-0.dtd"
   xmlns:inkscape="http://www.inkscape.org/namespaces/inkscape"
   aria-hidden="true"
   focusable="false"
   data-prefix="far"
   data-icon="folder-tree"
   class="svg-inline--fa fa-folder-tree fa-w-18"
   role="img"
   viewBox="0 0 576 512"
   version="1.1"
   id="svg3772"
   sodipodi:docname="tx_sfbooks_domain_model_extraslabels.svg"
   inkscape:version="0.92.3 (2405546, 2018-03-11)">
  <metadata
     id="metadata3778">
    <rdf:RDF>
      <cc:Work
         rdf:about="">
        <dc:format>image/svg+xml</dc:format>
        <dc:type
           rdf:resource="http://purl.org/dc/dcmitype/StillImage" />
      </cc:Work>
    </rdf:RDF>
  </metadata>
  <defs
     id="defs3776" />
  <sodipodi:namedview
     pagecolor="#ffffff"
     bordercolor="#666666"
     borderopacity="1"
     objecttolerance="10"
     gridtolerance="10"
     guidetolerance="10"
     inkscape:pageopacity="0"
     inkscape:pageshadow="2"
     inkscape:window-width="1747"
     inkscape:window-height="1383"
     id="namedview3774"
     showgrid="false"
     inkscape:zoom="0.9873047"
     inkscape:cx="399.7742"
     inkscape:cy="187.81466"
     inkscape:window-x="1693"
     inkscape:window-y="27"
     inkscape:window-maximized="0"
     inkscape:current-layer="svg3772" />
  <path
     d="m 288,256 h 224 c 17.67311,0 32,-14.32689 32,-32 V 96 C 544,78.326888 529.67311,64 512,64 H 400 L 368,32 h -80 c -17.67311,0 -32,14.326888 -32,32 v 72 H 80 V 48 C 80,39.163444 72.836556,32 64,32 H 48 c -8.836556,0 -16,7.163444 -16,16 0,0 0.165379,130.77728 0.142433,136 L 144.45104,183.87339 256,184 v 40 c 0,17.67311 14.32689,32 32,32 z M 304,80 h 44.12 l 32,32 H 496 v 96 H 304 Z"
     id="path3770"
     inkscape:connector-curvature="0"
     style="display:inline;fill:currentColor"
     sodipodi:nodetypes="sssssccssccsssccccssccccccc" />
  <path
     style="display:inline;opacity:1;fill:#000000;stroke-width:0.50642926"
     d="m 32.064593,312.48581 511.999987,-0.41092 0.25322,47.91621 -511.999992,0.22552 c 0,0 -0.253215,-34.01507 -0.253215,-47.73081 z"
     id="path3805"
     inkscape:connector-curvature="0"
     sodipodi:nodetypes="ccccc" />
  <path
     sodipodi:nodetypes="ccccc"
     inkscape:connector-curvature="0"
     id="path3822"
     d="m 30.154118,398.26919 511.999992,-0.41092 0.25322,47.91621 L 30.407333,446 c 0,0 -0.253215,-34.01507 -0.253215,-47.73081 z"
     style="display:inline;opacity:1;fill:#000000;stroke-width:0.50642926" />
</svg>
